<?xml version="1.0" encoding="UTF-8"?>
<svg version="1.1" viewBox="0 0 1100 800" xmlns="http://www.w3.org/2000/svg">
	<defs>
		<style>
			.st0 {
			fill: #9ea6ad;
			}
			
			.st1 {
			fill: #a4a6a9;
			}
			
			.st2 {
			opacity: .05;
			}
			
			.st3 {
			fill: #474ebb;
			}
			
			.st4 {
			fill: #fff;
			}
			
			.st5 {
			fill: #fffdf4;
			}
			
			.st6 {
			fill: #292949;
			}
			
			.st7 {
			fill: #dd957c;
			}
			
			.st8 {
			opacity: .18;
			}
			
			.st9 {
			fill: #dddae8;
			}
			
			.st10 {
			fill: #ebd296;
			}
			
			.st11 {
			fill: #353a85;
			}
			
			.st12 {
			fill: #f2f2f2;
			}
			
			.st13 {
			fill: #5d66d3;
			}
			
			.st14 {
			opacity: .06;
			}
			
			.st15 {
			fill: #d67086;
			}
			
			.st16 {
			fill: #ddd;
			}
			
			.st17 {
			fill: #3b3387;
			}
			
			.st18 {
			fill: #f1f7f8;
			}
			
			.st19 {
			fill: #426362;
			}
			
			.st20 {
			fill: #2e3472;
			}
			
			.st21 {
			fill: #7db5db;
			}
			
			.st22 {
			fill: #000100;
			}
			
			.st23 {
			fill: #161626;
			}
			
			.st24 {
			opacity: .1;
			}
			
			.st25 {
			fill: #f7f7f7;
			}
			
			.st26 {
			fill: #ebceb1;
			}
		</style>
	</defs>
	<path class="st25" d="M578.06,665.75c-27.11.08-54.22.76-81.28,3.89-10.2,1.18-20.19,3.78-30.42,4.82-20.43,2.09-40.49,5.99-60.99,7.79-16.51,1.45-33.09,2.3-49.55,4.14-15.43,1.72-32.52,1.33-47.83-1.52-11.34-2.11-22.73-3.3-33.87-6.68-12.47-3.79-26.01-6.5-39.01-6.4-18.53.14-36.57.16-54.3,6.84-6.22,2.35-13.84,6.21-18.57,11.14-10.82,11.28-12.28,39.43-1.48,51.13,18.19,19.69,57.03,27.42,82.53,27.79,27.95.4,55.09-1.76,83.08-3.03,26.01-1.18,51.95-2.86,78-2.8,53.2.12,106.41,0,159.52-3.7,49.89-3.47,99.91-2.28,149.92-2.28s102.21.42,153.11,7.51c22.18,3.09,44.78,4.17,67.07,6.33,19.96,1.94,39.15-.04,59.03-1.83,16.7-1.5,33.29-5.96,48.45-13.5,12.01-5.97,33.41-24.51,37.1-38.75,10.32-39.93-145.49-38.97-169.41-38.88-26.76.1-53.74,1.02-80.48-.04-11.25-.45-22.33-2.73-33.31-5.24-10.93-2.5-21.95-1.86-33.04-2.91-46.24-4.37-92.59-3.73-138.98-3.73-15.1,0-30.2-.14-45.3-.09Z" />
	<path class="st9" d="M862.67,279.74c22.71-2.12,40.55-21.87,40.65-46.01.01-3.62-.37-7.15-1.12-10.54l-13.48-65.01-4.67-.02h-.83s-24.61-.11-24.61-.11l-24-.1h-1.47s-4.01-.02-4.01-.02l-14,64.9c-.77,3.38-1.19,6.91-1.2,10.53-.09,23.91,17.26,43.67,39.65,46.28l-.17,43.75c-5.94.61-16.57,2.17-27.61,6.06v3.76s32.42.14,32.42.14l32.43.14v-3.76c-11.38-4.12-22.35-5.75-28.15-6.36l.17-43.62Z" />
	<path class="st11" d="m895.88 217.9-74.38-0.31-1.05 4.78c-0.68 2.97-1.04 6.06-1.05 9.24-0.09 22.49 17.41 40.8 39.08 40.89s39.31-18.07 39.4-40.56c0.01-3.18-0.33-6.28-0.98-9.25l-1.01-4.79z" />
	<g class="st8">
		<path class="st0" d="M903.32,233.74c.01-3.62-.37-7.15-1.12-10.54l-7.49-36.1s4.55,74.83-71.68,74.51h0c7.2,9.82,18.09,16.58,30.54,18.03l-.17,43.75c-5.94.61-16.57,2.17-27.61,6.06v3.76s32.42.14,32.42.14l32.43.14v-3.76c-11.38-4.12-22.35-5.75-28.15-6.36l.17-43.62c22.71-2.12,40.55-21.87,40.65-46.01Z" />
	</g>
	<path class="st18" d="M825.55,201.47l6.77-29.93c1.09-4.83,5.27-8.24,10.07-8.22l8.47.04s-15.77,3.38-25.31,38.12Z" />
	<g class="st24">
		<path class="st22" d="M890.67,329.73c-11.05-4-21.7-5.65-27.62-6.3,0,0,15.06,2.65,21.69,10.04l5.91.02v-3.76Z" />
	</g>
	<path class="st7" d="M849.61,690.35c4.18,3.18,8.41,6.39,13.11,8.3,1-2.95,1.54-6.12,1.58-9.3,0-.39,0-.8-.19-1.12-.16-.29-.44-.46-.71-.61-6.28-3.62-12.56-7.25-18.84-10.87-.24,2.26-1.42,6.44-.58,8.64.89,2.35,3.97,3.5,5.62,4.96Z" />
	<path class="st6" d="M867.14,705.98c1.42,4.1.65,8.6-.13,12.87,2.42,2.71,7.19,1.76,9.59-.96s3.08-6.52,3.63-10.11c.67-4.37,2.34-9.1,1.35-13.52-1.23-5.48-4.69-6.14-9.56-7.01-2.49-.44-5.22-2.31-7.67-2.35-3.38-.05-3.24,1.87-3.86,4.7-.73,3.32-2.43,6.4-2.95,9.76,4.29.2,8.14,2.38,9.6,6.6Z" />
	<path class="st6" d="M824.35,687.98c4.92,1.54,9.85,3.08,14.77,4.62,3.25,1.02,6.68,2.04,10,1.26,5.51-1.3,11.09-9.63,10.71-15.31-.56-8.32-9.8-9.06-17.51-12.53-17.95-8.07-35.38-17.27-52.16-27.54-4.17-2.55-8.41-5.28-11.2-9.3-1.88-2.71-2.99-5.86-4.07-8.98-4.36-12.47-6.96-28.15-16.51-37.02-9.86-9.15-23.79-16.55-36.45-20.77-13.52-4.25-33.07-3.92-44.75,5.02-15.67,11.99-3.74,30.61,5.47,42.45,11.26,14.49,24.28,31.87,39.52,42.26,10.41,7.1,22.63,10.95,34.66,14.71,22.51,7.04,45.03,14.08,67.54,21.13Z" />
	<polygon class="st7" points="629.12 677.1 637.14 698.25 624.67 703.01 615.79 679.57" />
	<path class="st6" d="M624.5,703.05l11.36-4.51,5.04.65,5.2,7.19-22.51,22.06h0c-4.5-1.27-6.53-6.42-4.11-10.44l.8-1.33,4.23-13.63Z" />
	<path class="st6" d="M584.14,567.27c-8.16,10.4-4.39,25.42-.24,37.97,9.78,29.58,19.56,59.16,29.34,88.75,24.47.51,25.08-7.61,20.99-29.24-3.04-16.09-8.48-31.73-8.7-48.26-.03-2.22.19-4.77,1.96-6.12,1.11-.84,2.58-1,3.96-1.12,15.17-1.35,29.87-2.6,45.03-3.45,17.99-1.01,35.07-7.82,51.79-14.54,6.54-2.63,13.26-5.37,18.36-10.26,25.52-24.49-29-30.22-42.99-33.56-8.29-1.98-15.86-1.98-24.27-1.88-6.41.08-13.96-2.33-19.46-2.16-13.95.43-5.38,4.86-15.95,14.03-6.92,6-15.47,3.49-23.85,2.06-13.05-2.23-26.76-3.95-35.97,7.78Z" />
	<path class="st7" d="M969.78,380.08c-.25.33-.55.63-.94.89-1.52,1.06-3.45,1.47-5.28,1.41-2.41-.07-4.74-.88-7-1.73-3.05-1.15-2.62-2.98-2.58-5.92.02-1.61.14-3.21.3-4.81.09-.88.96-3.92.51-4.62-.3-.48-1.85-.6-2.46-1.07-.96-.74-1.67-1.91-2.14-3.01-.75-1.77-.99-3.71-1.23-5.63-.41-3.33-.83-6.65-1.24-9.98-.42-3.4-.85-6.82-.58-10.24.4-5.14,2.46-12.15,6.93-15.19,4.07-2.77,9.36-3.07,14.13-2.86,6.31.28,12.52,2.53,17.28,6.73,1.92,1.7,3.67,3.77,4.53,6.35,1.33,3.98.39,8.5-.56,12.7-.88,3.89-1.75,7.77-2.63,11.66-1.01,4.47-2.47,9.57-6.27,11.43-2.02.99-4.41.86-6.24,2.25-2.29,1.75-2.7,4.9-3.24,7.53-.31,1.5-.44,2.95-1.3,4.09Z" />
	<path class="st6" d="M959.04,326.01c-.28.33-.52.68-.73,1.05-1.08,1.95-1,4.38-2.07,6.35-1.69,3.11-5.89,4.43-7.07,7.76-.96,2.73.49,5.74.16,8.61-.36,3.14-2.87,5.74-3.09,8.86-.19,2.71.85,6.76,2.07,9.17-.38-.75-4.88-1.29-5.92-2.2-1.59-1.39-1.67-2.11-1.88-4.05-.21-1.93.52-3.67.02-5.69-.6-2.48-2.37-4.53-2.66-7.12-.4-3.53,2-6.76,2.47-10.28.71-5.33-3-11.11-.47-15.85,1.49-2.78,4.68-4.17,6.75-6.55,1.57-1.8,2.44-4.1,3.67-6.16,1.23-2.05,3.07-4,5.45-4.28,1.32-.15,2.65.23,3.98.22,2.3-.03,4.42-1.24,6.69-1.6,3.25-.51,8.13,3.54,9.47,6.45,1.33,2.89.05,4.93-2.16,6.9-3.69,3.28-11.44,4.49-14.69,8.39Z" />
	<path class="st6" d="M1003.1,317.56c1.61,1.67,3.71,3.04,5.11,4.91,2.74,3.64,2.51,8.67,1.85,13.18-.59,4.02.54,7.87-.61,11.97-.78,2.75-2.46,5.37-5.02,6.63-3.19,1.57-7.71,1.13-9.54,4.18-1.99,3.31.91,8.42-1.86,11.12-1.53,1.49-3.98,1.32-5.94,2.15-2.19.93-3.59,3.04-5.14,4.84-1.55,1.8-3.7,3.51-6.05,3.15.52-3.58.91-6.42,3-9.42,1.22-1.74,4.44-4.79,2.79-7.2-.97-1.93-3.86-3-3.56-5.14.14-1,.98-1.73,1.67-2.47,2.69-2.86,3.65-7.12,2.83-10.95-.82-3.84-3.29-7.21-6.48-9.5-3.73-2.68-2.9-3.56-3.41-7.67-.47-3.78-2.36-4.98-5.36-6.85-2.7-1.68-3.5-2.57-4.1-5.48-.44-2.12-.99-4.67.53-6.69,1.21-1.61,3.06-2.58,4.84-3.51,3.73-1.94,7.88-3.93,11.96-2.92,2.26.56,4.23,2.01,6.5,2.54,1.52.35,3.1.28,4.64.49,2.63.37,5.24,1.64,7.09,3.56,1.86,1.94,1.52,3.57,2.31,6,.39,1.19,1.11,2.17,1.97,3.07Z" />
	<path class="st6" d="M1001.67,731.03c.06.34.14.71.39.95.25.23.62.27.96.29,2.51.18,5.03.12,7.53-.19,1.08-.13,2.24-.35,2.98-1.16.86-.95.85-2.38.79-3.66-.13-2.65-.25-5.3-.38-7.96-.07-1.41-.14-2.83-.49-4.19-.74-2.83-3.39-14.29-5.21-15.79-2.87-2.36-6.76.27-8.25,2.72-4.61,7.54.33,21.25,1.69,28.98Z" />
	<path class="st6" d="M887.38,709.77c0,.71.4,1.35.76,1.95,2.28,3.75,3.9,7.89,4.78,12.18.52,2.55.92,5.41,2.95,7.06,2.66,2.17,6.59,1.08,9.81-.1,1.4-.52,2.87-1.08,3.8-2.25.92-1.17,1-3.15-.24-3.97-.63-.42-1.43-.46-2.14-.69-2.07-.67-3.29-2.97-3.27-5.15.09-6.93,9.68-12.81-.55-17.94-5.02-2.51-15.88,2.63-15.88,8.92Z" />
	<path class="st6" d="m1010.1 569.1c1.57 2.98 2.96 6.11 4.09 9.45 7.9 23.31 6.04 48.63 4.19 72.75-1.52 19.86-3.05 39.73-4.57 59.59-5.87 0.46-11.83-0.18-17.47-1.88-5.29-19.53-9.84-39.27-13.65-59.14-3.18-16.62-3.96-37.95-13.51-52.44-4.61-7-11.69-11.9-17.81-17.62-11.26-10.52-19.65-24.53-21.66-39.81s2.91-31.72 14.3-42.1c3-2.73 6.56-5.09 10.57-5.68 19.28-2.84 18.82 19.59 24.04 30.85 8.06 17.4 22.66 29.3 31.47 46.04z" />
	<path class="st6" d="M886.43,578.54c4.42,4.9,10.12,8.3,15.64,11.52,12.34,7.2,24.78,14.44,38.14,18.6-4.8,17.66-13.42,31.88-20.91,47.91-4.21,9.01-8.66,17.87-13.39,26.53-3.08,5.63-8.44,10.85-10.57,17.03-2.62,7.6,4.9,15.33,10.98,12.88,2.67-1.08,4.93-3.26,7.12-5.41,25.68-25.16,48.31-52.97,62.6-86.26,2.96-6.89,5.6-14.25,4.82-21.71-1.78-16.85-15.67-32.61-28.31-42.58-7.11-5.61-15.9-13.42-20.28-22.13-4.83-9.6-5.64-21.21-12.86-29.19-7.61-8.41-19.9-8.03-28.54-1.19-9.21,7.29-11.99,23.24-12.9,35.33-.87,11.51-.79,23.88,4.57,33.3,1.13,1.98,2.44,3.76,3.9,5.37Z" />
	<path class="st9" d="M979.63,374.7c6.4,2.29,10.79,6.2,10.95,12.03.88,31.65-6.01,63.55-8.64,95.03-2.19,26.27,18.43,42.25,18.13,67.83-27.08,4.78-44.94-4.39-69.47-9.67-10.62-2.28-21.34-.85-31.26,3.72-6.6,3.04-17.45,18.23-22.23,19.21-3.15.64-8.3,1.22-11.48.4-1.72-.44-3.55-1.52-3.82-3.28-.19-1.24.45-2.44,1.02-3.56,8.99-17.58,9.01-38,13.39-57.01,4.57-19.85,11.5-39.1,21.56-56.85,10.1-17.82,18.67-45.72,31.85-60.62,7.93-8.96,34.71-12.71,50-7.23Z" />
	<path class="st7" d="M1025.62,301.83c-.98.15-1.93,1.11-2.05,2.17-.18,1.48.67,2.87,1.48,4.13,3.26,5.03,6.97,9.72,8.75,15.41.97,3.1,1.35,8.86,5.82,8.81,1.08-.01,2.19-.03,3.21-.42.83-.32,1.54-.87,2.22-1.44.53-.45,1.47-1.03,1.53-1.7.3-3.78-2.35-9.72-2.85-13.7-.3-2.42-4.4-31.37-5.7-31.11-1.97.37-3.94.74-5.91,1.11-.38.07-.79.15-1.08.41-.36.32-.46.83-.53,1.3-.62,4.2-.48,8.52.42,12.67.24,1.1.53,2.26.19,3.33-.34,1.07-1.62,1.93-2.61,1.38-.8-.44-1.02-1.54-1.76-2.08-.35-.25-.74-.32-1.13-.26Z" />
	<path class="st9" d="M1060.77,371.28c-4.15-18.4-11.97-50.41-15.76-49.83-5.99.92-11.79,3.05-16.97,6.21,3.04,12.93,7.55,26.6,6.26,40.05-1.05,10.99-11.92,13.16-21.01,14.44-4.68.66-10.36,2.26-14.94,2.31-6.91.08-13.77-4.11-20.68-2.27-5.08,1.35-8.7,6.01-10.42,10.97-1.73,4.96-1.92,10.3-2.47,15.52-1.03,9.72-.98,22.77,12.13,23.95,6.51.59,12.73-2.48,18.55-5.46,22.29-11.43,48.37-20.99,66.33-38.95.74-.64,1.51-1.33,1.77-2.27.21-.75.06-1.55-.09-2.32-.22-1.1-1.23-5.88-2.69-12.35Z" />
	<path class="st7" d="M861.55,316.67c.51.01,1.03.03,1.54.06.31.02.62.04.9.17.27.13.48.36.68.58,2.26,2.55,3.72,5.37,5.22,8.39.56,1.12.67,1.2.13,2.39-.6,1.32-1.36,2.61-2.07,3.88-.35,1.95-.78,3.89-.96,5.86-.46,5,3.86,16.04-1.95,18.61-1.12.5-2.28,1-3.48,1.04-.98.03-1.94-.26-2.88-.59-.72-.26-1.93-.48-2.26-1.21-.35-.77.09-2.91.11-3.8.07-2.55.15-5.09.22-7.64.07-2.5-.05-5.44-1.93-6.79-.41-.29-.88-.49-1.25-.84-.42-.4-.67-.97-.89-1.53-.82-2.05-1.51-4.23-1.88-6.45-.33-2.03.81-3.07,1.82-4.65,1.06-1.65,1.08-3.68,1.97-5.4.9-1.72,2.5-2.03,4.37-2.08.87-.02,1.74-.02,2.6,0Z" />
	<path class="st9" d="M860.28,414.07c-5.1-20.57-9.73-40.2-7.95-62.71,6.56-1.77,13.41-2.09,20.03-.93-.08-.01,8.16,36.73,9.94,40.42,4.6,9.53,4.22,8.41,12.61,4.37,7.35-3.54,14.11-8.94,21.34-12.84,10.64-5.75,26.89-6.95,31.88,7.88,1.32,3.94.47,8.23-.42,12.29-2.04,9.27-4.23,18.51-6.58,27.71-.65,2.54-1.44,5.28-3.54,6.86-1.63,1.22-3.75,1.52-5.77,1.76-16.59,2-33.27,3.34-49.97,4.02-5.29.21-11.43-.02-14.66-4.22-1.47-1.91-2.04-4.34-2.57-6.69-1.39-6.11-2.89-12.05-4.34-17.92Z" />
	<path class="st3" d="m1030 262.51-3.56-16.45-1.04-4.81-80.23 21.49-9.24 15.26-1.15 1.89c-1.02 1.68-0.42 3.87 1.32 4.79 3.75 1.99 8.14 4.11 13.08 6.17l82.2-22.02-1.37-6.33z" />
	<path class="st3" d="m1009.5 167.93c-0.65-3.02-4.66-3.69-6.27-1.05l-4.68 7.72-10.63 17.54-5.92 9.77 32.95-8.83-5.45-25.17z" />
	<polygon class="st3" points="1017.7 205.69 972.39 217.83 954.8 246.86 1022.7 228.67" />
	<path class="st3" d="M1037.31,296.23l-3.21-14.8-62.78,16.82c3.82.97,7.83,1.84,12.03,2.56,21.03,3.62,38.96,2.31,51.34.37,1.94-.3,3.22-2.18,2.8-4.1l-.18-.85Z" />
	<polygon class="st11" points="1015 193.1 982.02 201.93 972.39 217.83 1017.7 205.69" />
	<polygon class="st11" points="1022.7 228.67 954.8 246.86 946.47 260.61 945.17 262.75 1025.4 241.26" />
	<path class="st11" d="m1033.2 277.31-1.83-8.46-82.2 22.02c6.43 2.69 13.83 5.28 22.14 7.38l62.78-16.82-0.89-4.12z" />
	<path class="st11" d="M1025.8,155.32c.29.09.35.48.1.66l-9.3,6.46c-.1.07-.16.18-.16.31l.05,11.32c0,.31-.35.48-.59.3l-9.01-6.85c-.1-.07-.22-.09-.34-.06l-10.75,3.54c-.29.1-.57-.18-.46-.47l3.73-10.69c.04-.11.02-.24-.05-.34l-6.69-9.13c-.18-.25,0-.59.31-.59l11.32.24c.12,0,.24-.05.31-.15l6.61-9.18c.18-.25.57-.18.65.11l3.27,10.84,11.02,3.7Z" />
	<path class="st11" d="M1049.57,300.97c-1.43-2.21-4.32-3.81-8.28-3.38-20.17,2.23-39.93,1.27-60.26-2.5-9.55-1.77-19.15-3.91-28.32-7.02-4.72-1.6-9.24-3.54-13.77-5.53-3.89-1.71-7.4-4.36-11.82-4.66-1.99-.14-4.09.3-5.42,1.56-1.43,1.36-1.71,3.37-1.92,5.24-.33,2.93,8.19,6.69,11.05,8.4,4.9,2.94,10.2,5.26,15.62,7.3,10.41,3.92,21.27,6.62,32.24,8.72,22.08,4.23,45.06,6.7,66.63,1.06,5.33-1.39,6.35-5.95,4.25-9.2Z" />
	<path class="st7" d="M346.78,203.18c.26.17.51.36.74.58,2.14,2.02,1.33,4.84,2.67,7.08.6,1,3.88,2.15,2.69,3.67-.44.56-1.78,2.56-3.25,4.49-2.14,2.81-1.8,6.56-1.77,9.84.04,4.41.08,8.82.12,13.22.04,3.84.07,7.69.73,11.47,1.6,9.12,6.6,16.28,11.06,24.03,4.73,8.22,9.85,16.74,13.37,25.57,1.24,3.12,2.25,6.46,1.86,9.79-.99,8.36-8.75,9.4-14.47,4.64-2.4-2-4.27-4.56-6-7.16-4.68-7.01-8.65-14.49-11.81-22.3-1.47-3.64-2.77-7.35-4.07-11.06-3.35-9.56-5.07-18.51-5.51-28.62.19-4.75.9-9.45,1.5-14.15.37-2.87,2.46-9.16-.19-11.27-.43-.35-.95-.6-1.33-1-.43-.45-.66-1.06-.86-1.65-.74-2.17-1.33-4.46-1.54-6.75-.38-4.1,4.61-8.18,7.24-10.67.66-.62,1.35-1.24,2.21-1.51,1.4-.45,2.9.11,4.26.65.81.32,1.63.65,2.35,1.13Z" />
	<path class="st9" d="M351.43,303.95c6.73-5.68,13.46-11.37,20.19-17.05-.43.36,27.65,28.96,29.27,30.72,6.16,6.71,12.49,13.72,15.28,22.39,5.96,18.52-13.6,35.06-30.56,24.22-18.42-11.76-33.89-31.54-41.43-51.99-.16-.44-.33-.91-.25-1.38.11-.64.64-1.12,1.13-1.53l6.38-5.38Z" />
	<path class="st7" d="m500.42 694.33c-2.5 1.63-5.29 2.54-7.94 3.83-16.33-24.04-29.74-51.47-43.84-77.02 6.58-3.52 13.16-7.05 19.75-10.57 3.64 16.02 8.8 31.69 15.38 46.73 1.04 2.38 17 36.8 16.65 37.03z" />
	<path class="st6" d="M488.8,693.81c-1.74.67-2.25,1.94-2.72,3.53-.27.93-.21,1.96-.7,2.81s-1.17,1.36-1.99,1.98c-4.32,3.25-15.03,9.48-4.73,13.75,9.36,3.88,21.29-7.15,28.01-13.81.44-.44.94-.85,1.08-1.48.14-.63.05-1.36-.15-2.04-1.09-3.83-2.35-8.68-7.23-7.61-2.08.46-2.98,2.56-5.18,3.03-1.81.39-4.64-.83-6.39-.16Z" />
	<path class="st6" d="M507.5,521.2c-3.35,14.69-14.53,26.81-22.07,39.47-8.37,14.04-9.27,29.68-3.07,45.13.39.97.82,2.03.54,3.04-.28,1.01-1.2,1.7-2.06,2.3-8.74,6.07-18.04,11.33-27.75,15.7-5.49,2.47-10.72,4.77-16.48,6.59-14.09-25.38-20.27-55.07-17.47-83.96,1.56-16.18,5.84-31.95,10.1-47.64,2.11-7.75,3.62-16.06,6.63-23.5,1.97-4.87,3.45-12.4,7.81-15.63,3.94-3.03,8.4-3.55,13.77-3.28,14.36.72,34.77-.89,44.86,11.29,11.02,13.32,8.62,35.47,5.19,50.51Z" />
	<path class="st7" d="M404.68,705.02c-2.78,1.08-5.7,1.39-8.56,2.1-11-26.9-18.45-56.51-26.95-84.43,7.17-2.08,14.34-4.17,21.51-6.25.24,16.42,2.05,32.82,5.37,48.91.53,2.55,9.02,39.52,8.62,39.67Z" />
	<path class="st6" d="M393.41,702.1c-1.85.3-2.6,1.43-3.39,2.89-.46.85-.61,1.88-1.27,2.6-.66.72-1.42,1.09-2.35,1.52-4.9,2.28-16.67,6.16-7.47,12.47,8.35,5.73,22.31-2.59,30.26-7.72.52-.34,1.1-.63,1.36-1.22.26-.59.33-1.32.28-2.03-.28-3.97-.51-8.98-5.5-8.94-2.13.02-3.44,1.89-5.7,1.9-1.85,0-4.37-1.77-6.21-1.47Z" />
	<path class="st6" d="M447.43,537.09c-6.32,13.67-19.76,23.23-29.76,34.04-11.09,12-15.21,27.12-12.34,43.52.18,1.03.38,2.15-.1,3.08-.48.93-1.52,1.42-2.49,1.82-9.81,4.13-20,7.36-30.4,9.62-5.88,1.28-11.47,2.45-17.48,3.03-8.53-27.74-8.43-58.07.28-85.76,4.88-15.5,12.33-30.05,19.74-44.52,3.66-7.15,6.87-14.96,11.36-21.62,2.94-4.36,5.94-11.42,10.87-13.68,4.49-2.15,8.95-1.73,14.15-.36,13.91,3.67,34.2,6.32,41.55,20.33,8.03,15.31,1.09,36.49-5.38,50.49Z" />
	<path class="st9" d="M462.76,332.37c13.02,10.66,23.23,24.84,29.86,39.83,11.74,26.53,14.1,55.62,16.31,84.14.74,9.49,1.47,18.98,2.21,28.47.73,9.34.05,11.41-10.19,10.93-18.98-.88-38.82-3.3-56.48-10.39-8.41-3.37-16.36-7.83-25.09-10.33-12.71-3.63-25.23-.63-37.69-2.68,2.4-9.61,6.41-18.53,7.83-28.53,1.43-10.01,1.7-20.16,1.63-30.27-.12-17.67.76-35.31.78-52.93,0-12.62-2.41-22.77,10.32-31.99,6.93-5.02,19.57-13.67,29.98-12.36,11.04,1.39,23.26,10.15,30.54,16.11Z" />
	<path class="st7" d="M402.6,297.02c2.59,4.7,6.52,8.48,9.82,12.71,3.21,4.11,4.54,7.95,5.68,12.91.82,3.58,2.33,6.32,6.74,6.61,8.32.56,5.46-6.07,6.96-11.16,1.72-5.82,5.94-10.63,8.75-15.91,8.12-15.28,3.34-43.92-16.25-48.65-21.42-5.17-29.56,29.23-21.71,43.49Z" />
	<path class="st23" d="M434.9,280.42c2.38-.08,5.01-.09,6.89,1.38,1.88,1.46,1.95,4.96-.35,5.51-2.08.5-4.98-1.5-6.14.2-.68.99.08,2.32.73,3.37,2.51,4.05,3.53,8.88,2.84,13.44.93.74,2.22-.2,2.92-1.09,3.47-4.44,6.07-9.51,7.61-14.89.85,1.21,2.05,2.21,3.42,2.85-.93-1.91-.6-4.1-.26-6.15,1.24-7.51,1.81-16.25-3.79-21.9-3-3.02-7.33-4.57-11.61-5.03s-8.56.04-12.79.55c-1.81.22-4.02.78-4.34,2.49,4.11,1.3,8.47,4.11,10.74,7.74.7,1.11,3.89,11.53,4.13,11.52Z" />
	<path class="st6" d="M425.15,263.31c.15.09.3.19.45.29,1.91,1.24,3.73,2.79,5.96,3.24,3.22.64,6.49-1.13,9.68-.29,3.56.94,6.15,4.92,8.87,7.19,4.45,3.72,9.82,6.29,15.48,7.57,2.89.65,5.85.96,8.81.91,1.34-.02,3.15.1,4.42-.35,1.71-.6,1.59-1.39-.31-1.85-5.98-1.44-8.42-9.5-8.39-14.98.03-4.32,1.17-8.92-.76-12.78-1.48-2.95-4.28-4.32-7.01-5.87-3.01-1.71-6.07-.96-9.39-1.64-3.46-.71-6.43-3.17-9.94-3.6-3.71-.45-7.24,1.44-10.84,2.43-2.98.81-6.12,1.01-9.17.57-2.74-.39-5.45-1.29-8.2-1.05-4.06.34-7.61,3.16-9.74,6.64-3.01,4.92-4.58,13.07-2.94,19.13-.25-.94,2.7-4.64,3.3-5.43,1.28-1.67,2.85-3.27,4.96-3.68,4.78-.93,10.67,1.04,14.75,3.56Z" />
	<path class="st7" d="M516.67,206.74c-.28.14-.55.3-.81.48-2.37,1.73-1.93,4.63-3.53,6.69-.72.92-4.12,1.65-3.13,3.3.37.61,1.45,2.76,2.66,4.86,1.77,3.05.97,6.73.53,9.98-.59,4.37-1.18,8.74-1.77,13.11-.51,3.8-1.03,7.62-2.16,11.29-2.72,8.85-8.58,15.32-13.98,22.46-5.72,7.57-11.87,15.38-16.46,23.7-1.62,2.94-3.04,6.13-3.06,9.48-.06,8.42,7.5,10.42,13.78,6.41,2.63-1.68,4.8-3.99,6.85-6.36,5.52-6.37,10.39-13.3,14.5-20.65,1.92-3.43,3.67-6.95,5.42-10.46,4.52-9.07,7.34-17.74,9.04-27.71.4-4.73.29-9.48.28-14.23,0-2.9-1.29-9.39,1.6-11.16.47-.29,1.01-.47,1.44-.82.49-.4.79-.97,1.06-1.53,1.01-2.06,1.87-4.26,2.37-6.51.89-4.02-3.55-8.7-5.85-11.49-.57-.7-1.19-1.4-2.01-1.78-1.33-.62-2.89-.26-4.31.11-.84.22-1.7.45-2.47.83Z" />
	<path class="st9" d="M499.47,306.14c-5.97-6.48-11.93-12.96-17.9-19.44.38.42-31.06,25.28-32.88,26.82-6.95,5.89-14.11,12.05-17.96,20.31-8.23,17.63,9.11,36.48,27.3,27.85,19.74-9.37,37.56-27.06,47.6-46.4.22-.42.44-.87.42-1.34-.03-.65-.49-1.19-.93-1.66l-5.65-6.14Z" />
	<path class="st11" d="M440.74,105.89c-.22-.71-.77-1.28-1.47-1.53,0,0-96.26-34.67-98.5-35.51-.37-.14-.73-.35-1.14-.37-.8-.05-1.58.31-2.05.96l-62.51,85.56c-.77,1.05-2.28,1.17-3.24.28-4.25-3.95-9.86-6.96-16.04-8.51-16.08-4.05-31.65,2.66-34.71,14.95-1.51,6.08.2,12.54,4.81,18.19,1.64,2,3.58,3.82,5.75,5.41,3.74,2.74,8.19,4.81,13.04,6.03,12.57,3.16,25.16-.13,31.4-8.19.05-.06.1-.12.14-.18l49.41-67.62c.57-.77,1.58-1.08,2.48-.76l65.21,23.49c1.36.49,1.88,2.15,1.02,3.32l-35.63,48.77c-.77,1.05-2.28,1.17-3.24.28-4.25-3.95-9.86-6.96-16.04-8.51-7.67-1.93-15.46-1.51-21.94,1.18-6.72,2.79-11.25,7.68-12.77,13.76-1.51,6.08.2,12.54,4.81,18.19,4.46,5.45,11.13,9.51,18.8,11.44,12.74,3.21,25.41-.18,31.59-8.43.02-.03.05-.06.07-.09l80.37-109.99c.44-.6.57-1.38.35-2.09ZM410.15,119.79l-2.57,3.52c-.56.77-1.57,1.08-2.48.76l-65.33-23.34c-1.37-.49-1.88-2.15-1.03-3.32l2.68-3.67c.57-.77,1.58-1.08,2.48-.76l65.21,23.49c1.36.49,1.88,2.15,1.02,3.32Z" />
	<g class="st14">
		<path class="st21" d="M221.29,171.29c.84,2.97,2.38,5.88,4.61,8.61,1.64,2,3.58,3.82,5.75,5.41,3.74,2.74,8.19,4.81,13.04,6.03,12.57,3.16,25.16-.13,31.4-8.19.05-.06.1-.12.14-.18l13.79-18.87c-30.99,16.53-55.2,12.41-68.74,7.2Z" />
	</g>
	<g class="st14">
		<path class="st21" d="M328.36,226.5c12.74,3.21,25.41-.18,31.59-8.43.02-.03.05-.06.07-.09l10.96-15.01c-30.74,14.32-54.17,8.4-66.16,3.04.81,3.12,2.4,6.19,4.73,9.05,4.46,5.45,11.13,9.51,18.8,11.44Z" />
	</g>
	<path class="st9" d="M722.04,418.44c2.08,1.61,3.91,3.55,5.71,5.48,1.62,1.72,3.23,3.45,4.85,5.17,5.6,5.98,8.37,14.83,10.77,22.46,4.59,14.59,6.3,29.9,8.84,44.98,2.66,15.53,9.44,30.49,15.48,44.98,2.5,6,5.09,12.15,9.57,16.86,4.48,4.71,11.34,7.74,17.57,5.89-.31,3.95-.63,7.89-.94,11.84-.11,1.43-.27,2.98-1.21,4.07-1.15,1.33-3.09,1.57-4.84,1.65-7.01.32-14.08-.53-21.04.33-9.16,1.13-17.98,5.2-27.2,4.74-8.54-.42-15.89-4.7-23.89-7.14-6.66-2.03-11.55-.91-17.94-1.5-15.9-1.47-33.07-11.71-47.91-17.68-1.01-.41-2.1-.88-2.65-1.82-.51-.89-.42-1.99-.31-3.02,2.35-22.41,4.74-44.86,9.19-66.97,2.23-11.08,4.97-22.07,8.5-32.82,3.73-11.38,7.93-23.66,16.65-32.27,9.33-9.21,27.2-13.76,38.89-6.57.67.41,1.31.86,1.92,1.34Z" />
	<path class="st7" d="M718.65,424.04c.56-3.62,1.12-7.25,1.69-10.87.76-.36,1.47-.76,2.14-1.19,12.98-8.29,34.75-52.79.15-62.75-31.42-9.04-29.78,34.17-23.65,52.19,1.05,3.08,2.45,6,4.53,8.52,1.42,1.73,1.74,1.4,1.54,3.4-.2,1.94-2.13,4.13-2.57,6.18-.47,2.18-.29,4.6.97,6.43.78,1.12,1.91,1.96,3.12,2.6,1.92,1.02,4.15,1.58,6.28,1.17,2.54-.48,5.4-3.1,5.8-5.7Z" />
	<path class="st23" d="M691.6,385.1c1.92,5.75,4.62,11.24,7.98,16.28-.18-10.64,1.11-21.3,3.82-31.58.21-.78.41-1.67-.02-2.36-.4-.65-1.21-.89-1.95-1.05-13.23-2.86-13.19,8.69-9.84,18.71Z" />
	<path class="st6" d="M726.36,401.13c2.12,2.99,6.77,2.18,10.05.54,13.45-6.76,21.36-23.03,18.38-37.78-2.5-12.34-18.06-21.6-21.2-6.31-1.12,5.42,2.19,12.94,1.43,18.95-1.08,8.6-5.09,16.82-8.65,24.6Z" />
	<path class="st6" d="M691.74,337.9c-1.51.6-3.04,1.22-4.65,1.86-3.34,1.31-5.77,1.75-9.21-.21-.99-.56-7.59-6.81-6-8.1-10.54,8.6-1.87,21.15,2.08,30.03,2.66,5.99,3.21,14.44,9.2,18.35,6.59,4.3,11.1-1.14,17.08-3.58,5.27-2.15,10.98-3.32,16.34-5.23,8.91-3.18,22.16-8.76,19.21-20.59-3.45-13.82-17.45-17.26-30.02-16.21-5.37.45-9.58,1.93-14.02,3.68Z" />
	<path class="st26" d="M614.96,452.2s-1.98,6.89-1.98,6.89c-.08.27-5.46-1.15-5.9-1.29-2.53-.78-5.59-1.35-7.31-3.61-.54-.71-.9-1.53-1.33-2.31-1.08-1.96-3.28-3.61-3.59-5.9-.43-3.23,1.52-4.61,4.43-3.61.88.31,1.75.71,2.43,1.35.89.85,1.37,2.05,2.15,3.02.54.67,4.92,2.9,3.82.92l-.94-1.69,1.69-.9,6.53,7.12Z" />
	<path class="st9" d="M633.39,454.01c-1.82-.54-19.22-6.75-19.92-5.52-1.72,3-3.44,6-5.15,9-.41.72-.84,1.5-.77,2.33.27,3.06,8.92,7.48,11.4,8.75,4.61,2.36,9.58,3.96,14.56,5.37,3.81,1.08,7.65,2.05,11.51,2.93,1.45.33,2.94.65,4.42.5,1.74-.18,3.34-.98,4.89-1.77,4.25-2.16,8.51-4.33,12.5-6.93,6.35-4.13,11.98-9.32,18.37-13.39,4.71-3,10.25-5.87,11.98-11.18,1.28-3.92.05-8.33-2.36-11.69-2.4-3.35-5.84-5.8-9.35-7.98-.55-.34-1.14-.69-1.79-.74-.98-.07-1.86.55-2.65,1.14-10.94,8.21-21.59,16.81-31.91,25.78-2.15,1.86-4.4,3.81-7.18,4.44-2.83.64-5.77-.19-8.55-1.02Z" />
	<path class="st13" d="M654.3,207.47c-5.88-5.04-14.72-18.59-6.07-33.82,2.44-4.3,4.67-7.62,6.46-10.29,5.25-7.83,6.66-9.93,2.77-19.32-2.5-6.03-2.53-10.74-.1-14.01,3.27-4.39,9.3-3.91,9.97-3.84l-.67,6.52c-.75-.07-3.16.02-4.06,1.25-.91,1.24-.58,4,.9,7.58,5.24,12.63,2.18,17.19-3.37,25.47-1.82,2.71-3.88,5.79-6.2,9.88-8.12,14.3,4.11,25.16,4.64,25.62l-4.27,4.97Z" />
	<path class="st3" d="M722.94,187.15l-6.48.94c-.05-.37-1.28-9.23,3.45-15.41,2.43-3.17,5.88-5.04,10.27-5.57,3.34-.4,5.64-1.4,6.49-2.82.89-1.48.16-3.38.15-3.4l6.05-2.52c.21.49,1.96,4.91-.51,9.17-1.94,3.35-5.77,5.39-11.4,6.07-2.6.31-4.52,1.31-5.85,3.05-3.02,3.95-2.18,10.42-2.17,10.49Z" />
	<path class="st17" d="M615.13,150.92l2.27-6.14c.35.13,8.72,3.29,11.89,10.4,1.62,3.65,1.62,7.58-.01,11.69-1.24,3.13-1.47,5.63-.63,7.05.88,1.49,2.89,1.76,2.91,1.76l-.68,6.51c-.53-.05-5.25-.63-7.81-4.83-2.02-3.31-1.98-7.65.11-12.91.97-2.44,1.01-4.6.12-6.6-2.02-4.54-8.11-6.9-8.17-6.92Z" />
	<path class="st13" d="M602.75,111.09l-2.22-6.16c.36-.13,8.79-3.1,15.79.29,3.59,1.74,6.12,4.75,7.52,8.94,1.06,3.19,2.51,5.25,4.06,5.79,1.63.57,3.34-.52,3.36-.53l3.68,5.42c-.44.3-4.41,2.9-9.08,1.34-3.67-1.23-6.44-4.57-8.23-9.95-.83-2.49-2.19-4.17-4.16-5.12-4.47-2.17-10.65-.05-10.71-.02Z" />
	<rect class="st17" transform="translate(433.28 846.17) rotate(-85.59)" x="664.87" y="185.84" width="17.4" height="6.55" />
	<rect class="st13" transform="translate(98.01 563.63) rotate(-46.62)" x="694.4" y="164.8" width="17.4" height="6.55" />
	<rect class="st3" transform="translate(69.78 512.12) rotate(-48.89)" x="594.91" y="170.6" width="6.55" height="17.4" />
	<path class="st17" d="M691.8,131.16l-6.47,1.03c-.09-.58-2.07-14.23,13.8-21.72,5.9-2.78,5.51-4.03,4.66-6.76-.72-2.32-1.82-5.82,1.17-9.27l4.95,4.29c-.5.58-.54.88.13,3.03,1.42,4.56,2.09,9.82-8.12,14.63-11.47,5.41-10.14,14.67-10.12,14.76Z" />
	<path class="st3" d="M779.41,141.87l-6.06,2.49c-1.38-3.32-3.91-6.61-5.12-6.64-.36,0-1.65.73-3.31,4.23-1.17,2.46-3.11,5.77-6.5,6.1-3.86.39-6.51-3.15-9.56-7.23-3.86-5.16-8.66-11.58-16.09-11.45-3.97.07-6.94,1.26-9.07,3.65-4.6,5.16-3.79,14.19-3.78,14.28l-6.52.66c-.05-.48-1.13-11.93,5.38-19.27,3.37-3.79,8.03-5.77,13.87-5.87,10.78-.19,17.2,8.4,21.45,14.08,1.17,1.56,2.71,3.62,3.64,4.4.27-.34.7-.98,1.26-2.15,2.55-5.38,5.72-8.06,9.4-7.96,6.36.17,10.28,8.94,11,10.7Z" />
	<path class="st13" d="m639.43 362.62c-9.11-36.08-1.55-65.09-1.55-65.09l13.26-55.38-26.62-6.38-13.26 55.38s-6.4 29.29-30.86 57.33-30.95 47.45-38.62 79.51l-22.89 95.6c-2.31 9.66 3.59 19.35 13.18 21.65l61.36 14.7c9.59 2.3 19.24-3.67 21.55-13.33l22.89-95.6c7.68-32.06 10.69-52.3 1.58-88.38z" />
	<rect class="st13" transform="translate(74.56 -141.42) rotate(13.47)" x="619.12" y="238.72" width="33.92" height="12.59" />
	<rect class="st13" transform="translate(72.78 -142.07) rotate(13.47)" x="624.57" y="235.35" width="26.78" height="3.6" />
	<rect class="st11" transform="translate(221.27 820.05) rotate(-76.53)" x="611.38" y="256.07" width="38.16" height="27.38" />
	<g class="st24">
		<path class="st22" d="m643.39 424s-29.47 128.21-109.6 121.65l28.94 6.93 30.68 7.35c9.59 2.3 19.24-3.67 21.55-13.33l22.89-95.6c2.36-9.85 4.27-18.58 5.54-27z" />
	</g>
	<g class="st2">
		<path class="st4" d="m607.37 309.95s-10.51 38.78 2.74 52.43-36.12-2.49-60.82 49.54c0 0 7.96-33.23 27.71-54.38 20.67-22.13 25-32.84 30.37-47.58z" />
	</g>
	<g class="st24">
		<polygon class="st22" points="621.59 248.02 646.26 262.56 648.21 254.39" />
	</g>
	<polygon class="st11" points="637.9 458.75 574.12 380.57 539.66 410.36 520.78 488.95 614.11 553.65" />
	<path class="st7" d="M834.31,481.59s-.82-7.28-.82-7.28c-.03-.28,5.67-.8,6.14-.83,2.72-.14,5.87-.66,8.4.9.79.49,1.46,1.15,2.18,1.74,1.63,1.35,3.53,2.39,5.54,3.03.36.11.75.23,1.01.51.2.22.29.5.37.78.32,1.08.54,2.26.07,3.24-.67,1.38-2.45,1.8-4.05,1.83-.96.02-1.95-.06-2.86-.45-1.19-.5-2.12-1.48-3.24-2.13-.78-.45-5.83-1.05-4.01.45l1.57,1.28-1.26,1.45-9.04-4.52Z" />
	<path class="st9" d="M786.21,478.51c-2.7-5.19-3.76-11.18-7.79-15.21-7.04-7.05-17.24-2.45-25.62.67-13.57,5.06-35.86,7.67-43.14-8.84-2.76-6.25-.49-13.97,4.4-18.74,6.35-6.21,16.45-8.69,24.62-5.74,17.68,6.38,42.24,4.8,55.06,20.95,4.47,5.63,6.75,12.94,12.37,17.49,9.56,7.74,21.88,2.76,31.97,3.39-.93,5.85-3.69,13.1-3.69,13.11-4.7,12.34-36.56,4.35-43.27-.93-2.21-1.74-3.71-3.86-4.9-6.14Z" />
	<path class="st7" d="M216.86,353.15c2.06-6.45-.16-13.51-5.54-17.62-9.84-7.51-19.68-15.02-29.53-22.53-5.53-4.22-13.56-8.31-17.29-14.02-6.6-10.1-10.36-23.95-14.61-35.2-2.16-5.71-6.31-13.09-6.52-19.22-.04-1.15,2.76-11.5,2.48-11.63-.02-.01-2.31-1.36-2.31-1.36l-1.32,2.32-1.82.48,1.82-7.72-8.85-1.61-6.99,7.77c2.42,6.14,6.46,11.79,7.38,18.42.39,2.8.32,5.64.47,8.47.26,4.85,1.17,9.63,1.87,14.43.68,4.64.47,9.43,1.21,13.99,1.64,10.17,3.36,20.33,5.04,30.5l48.82,41.81c8.71,7.46,22.2,3.63,25.69-7.29Z" />
	<path class="st19" d="M225.92,364.29c4.97-6.87,4.5-19.24-.4-25.93-2.46-3.36-5.05-6.63-7.75-9.79-3.79-4.44-10.32-6.67-15.48-9.31-1.41-.72-16.94-8.49-17.04-8.28-6.99,14.03-13.98,28.06-20.96,42.1-.32.64-.64,1.31-.59,2.02.07.96.79,1.72,1.46,2.4,6.34,6.32,13.24,12.77,21.94,14.89,4.95,1.21,10.12.91,15.21.61,8.67-.52,18.53-1.65,23.63-8.7Z" />
	<path class="st7" d="M215.04,611.14l-.67,40.69c.27,11.29-.74,22.54-1.43,33.8-.64,10.45,1.47,21.23-3.49,30.91-1.56,3.04-4.86,5.15-7.38,1.64-1.94-2.7-1.05-7.38-1.53-10.52-3.6-23.59-10.31-46.59-13.65-70.23-3.5-24.76,6.07-24.1,28.15-26.3Z" />
	<polygon class="st6" points="212.73 709.59 215.34 716.38 202.47 727.71 190.68 728.2 186.86 721.97 202.72 708.18" />
	<path class="st7" d="M243.87,611.54l7.42,40.02c2.57,17.9,8.42,35.33,10.99,53.24.59,4.12.29,8.62,2.01,12.5,1.68,3.8,4.98,3.95,7.88,1.37,3.89-3.45,2.1-9.62,2.03-14.34-.48-31.42,1.99-62.39,2.59-93.85,0-.41-.01-.89-.33-1.15-.26-.21-.63-.21-.96-.19-3.06.2-31.48,3.26-31.64,2.4Z" />
	<polygon class="st6" points="274.3 711.26 278.38 717.28 268.39 731.23 257.02 734.36 251.9 729.16 264.23 712.15" />
	<polygon class="st6" points="173.1 637.04 178.65 578.86 181.33 541.06 190.33 510.19 238.94 502.64 299.03 512.94 301.92 524.62 290.35 632.69 232.39 637.04 233.18 569.77 224.24 611.46 224.62 637.04" />
	<path class="st4" d="M288.48,386.47c.08,1.96.14,3.93.17,5.89.7,39.9-1.5,80.32-1.75,120.55-20.61-3.23-41.44-5-62.3-5.32-4.83-.07-26.77,3.32-29.83.43-4.15-3.91.41-3.17.11-8.27-.39-6.59,2.78-11.99,1.58-19.81-1.41-9.18-4.2-18.26-5.82-27.44-4.42-25.12-3.37-48.53-.11-73.78,1.9-14.69,4.44-30.61,12.47-43.38,5.74-9.13,17.47-13.02,27.93-14.13,21.36-2.27,42.65,8.9,50.82,29.16,4.6,11.41,6.2,23.77,6.72,36.11Z" />
	<path class="st15" d="M224.57,334.69l15.38,28.04c-.8,28.32-1.61,56.65-2.41,84.97-.37,13.05-.74,26.11-1.11,39.16-.13,4.53-.24,9.07-.39,13.6-.07,2.03.5,5.46-.66,7.12-2.52,3.6-11.73,2.48-15.74,2.8-6.26.49-12.62,1-18.52,3.17-3.93,1.44-7.65,3.61-11.79,4.19-.93.13-1.97.15-2.7-.44-.82-.66-.96-1.83-1.03-2.88-1.9-25.7-.16-51.67-.72-77.5-.58-26.63-.68-53.69,6.4-79.58,2.67-9.77,6.52-19.54,12.74-27.63,7.5-9.75,13.23-11.03,25.03-11.47,3.43-.13,7.06-.71,5.7,4.26-1.09,4-7.47,8.99-10.17,12.2Z" />
	<path class="st15" d="M258.04,337.33l-15.38,28.04c.32,0,1.95,68.73,2.08,73.37.5,17.64,1,35.28,1.5,52.93.14,4.9-.52,10.65.44,15.47,1.34,6.73,8.42,5.4,14.46,5.95,13.2,1.19,27.11,3.44,40.35,2.78,3.82-.19-1.21-79.9-1.2-87.34.03-26.75,5.54-56.43-8.04-80.69-3.95-7.06-10.92-18.37-18.62-21.86-7.17-3.25-17.43-3.8-25.22-5.62l-.41,5.04,10.04,11.94Z" />
	<path class="st6" d="M238.25,270.31c-3.17,3.72-5.22,8.31-6.34,13.07-.3,1.26-.66,2.72-1.84,3.28-1.26.6-.62,2.55-1.26,1.31s-2.78-5.52-2.65-6.91c.3-3.25.92-6.46,1.83-9.59.79-2.72,1.91-5.51,4.12-7.28,1.31-1.05,2.91-1.66,4.49-2.25,2.28-.85,4.63-1.7,7.07-1.69,4.2.01,6.41,1.94,2.3,4.09-2.95,1.54-5.55,3.42-7.72,5.97Z" />
	<path class="st7" d="M253.31,329.53c-.4,1.96-.38,4.07-2.4,5.27-.97.57-2.15.66-3.28.62-2.92-.09-5.81-.85-8.39-2.21-1.06-.56-2.09-1.24-2.79-2.22-.82-1.15-.7-2.08-.51-3.35.22-1.49.21-3.05.3-4.59.2-3.36.63-6.71,1.16-10.03-4.7-1.75-10.13-4.41-10.82-9.82-.22-1.7.09-3.45.4-5.16,1.28-7.07,2.57-14.13,3.85-21.2.44-2.44.91-4.96,2.18-7.07,2.22-3.7,6.39-5.36,10.33-6.16,10.04-2.04,20.88.17,28.47,7.21,2.02,1.87,3.83,4.13,4.67,6.9,1.3,4.26.14,9-1.02,13.41-1.07,4.07-2.14,8.15-3.22,12.22-1.23,4.69-2.98,10.02-7.14,11.83-2.21.96-4.79.73-6.8,2.13-3.51,2.45-2.96,7.21-4.52,10.69-.22.49-.36,1.01-.47,1.54Z" />
	<path class="st6" d="M224.94,301.9c.04,4.56,1.37,9.15,4.48,12.3,3.52,3.56,8.57,4.72,13.36,5.75,2.62.56,5.24,1.12,7.86,1.68,6.63,1.42,13.41,1.81,18.16-4.55,2.19-2.93,3.4-6.6,3.86-10.29.13-1.01.19-2.07-.12-3.02-.31-.95-1.08-1.79-2.03-1.83-1.21-.06-2.16,1.08-3.11,1.92-2.07,1.84-5.22,2.49-7.37.89-.64-.47-1.15-1.1-1.65-1.74-.21-.26-.41-.52-.63-.77-2.12-2.49-5.01-3.99-8-4.97-2.59-.85-6.32-2.57-8.72-.68l-4.19,3.3c-.58.45-1.16.91-1.84,1.15-.7.24-1.44.22-2.16.1-1.79-.31-3.64-1.51-3.91-3.44-.11-.84.09-1.7.21-2.54.13-.84.17-1.76-.23-2.49-1.51-2.78-2.81.94-3.14,2.24-.58,2.29-.88,4.65-.86,7ZM242.84,306.55c1.84,1.82,4.05,2.25,6.52,1.99,1.27-.13,1.4,1.98.13,2.11-2.98.32-5.76-.3-7.97-2.49-.92-.91.39-2.53,1.32-1.62Z" />
	<path class="st6" d="M232.03,256.47c-.14-1.8-.15-3.61-.04-5.41,1.52.88,3.26,1.37,5.02,1.4.2-1.01.39-2.03.59-3.04.17-.84,11.7.73,12.64.83,8.82.93,16.89,1.75,23.86,7.9,5.95,5.25,9.13,12.01,8.7,19.94-.42,7.58-4.66,16.78-10.1,22.1.4-1.96,2.41-6.39,2.3-8.35.07-1.93-.24-3.86-.81-5.7-1.15-3.67-3.39-7-6.2-9.6-4.49-4.15-10.09-6.96-15.84-8.9-5.27-1.78-11.74-3.72-17.36-3.3-2.7.2-3.25.77-4.32-2.12-.19-.51-1.35-6.27-1.14-6.23.9.16,1.81.31,2.71.47Z" />
	<path class="st10" d="m208.29 359.61-50.35 159.16c-4 12.65-17.43 19.68-29.99 15.7l-83.28-26.34c-12.56-3.97-19.5-17.45-15.5-30.09l50.35-159.16-6.98-2.21-52.01 164.4c-4.43 14.02 3.26 28.95 17.18 33.36l92.32 29.2c13.92 4.4 28.81-3.39 33.24-17.41l52.01-164.4-6.98-2.21z" />
	<path class="st11" d="m44.67 508.13 83.28 26.34c12.56 3.97 25.99-3.06 29.99-15.7l46.02-145.49-128.78-40.73-46.03 145.49c-4 12.65 2.94 26.12 15.5 30.09z" />
	<path class="st3" d="m224.66 397-25.64-8.11-5.49 17.36 23.66 7.49s16.22 5.13 10.36 23.68c-5.87 18.55-14.88 47.04-14.88 47.04s-3.78 19.49-24.82 12.83c-10.47-3.31-18.76-5.93-21.01-6.65l-5.48 17.34 25.64 8.11c17.32 5.48 35.84-4.22 41.36-21.66l17.7-55.94c5.52-17.44-4.05-36.02-21.38-41.5z" />
	<path class="st3" d="M102.1,368.55l-24.15-7.64-33.33,105.36h0c-.02.07-.05.14-.07.21-2.12,6.71,1.56,13.87,8.23,15.98,6.67,2.11,13.8-1.62,15.92-8.34.02-.07.04-.14.06-.22h0s33.33-105.36,33.33-105.36Z" />
	<path class="st3" d="m160.96 387.16 24.15 7.64-33.33 105.36-0.06 0.21c-2.12 6.71-9.25 10.45-15.92 8.34s-10.35-9.26-8.23-15.98c0.02-0.07 0.05-0.14 0.07-0.21s33.33-105.36 33.33-105.36z" />
	<path class="st3" d="m143.61 381.67-24.15-7.64-33.33 105.36c-0.02 0.07-0.05 0.14-0.07 0.21-2.12 6.71 1.56 13.87 8.23 15.98s13.8-1.62 15.92-8.34l0.06-0.21s33.33-105.36 33.33-105.36z" />
	<path class="st3" d="m204.09 372.88-46.15 145.88c-4 12.65-17.43 19.68-29.99 15.7l-83.28-26.34c-12.56-3.97-19.5-17.45-15.5-30.09l46.15-145.88-6.98-2.21-47.81 151.12c-4.43 14.02 3.26 28.95 17.18 33.36l92.32 29.2c13.92 4.4 28.81-3.39 33.24-17.41l47.81-151.12-6.98-2.21z" />
	<g class="st24">
		<path class="st22" d="M35.29,513.52c.79.34,1.59.64,2.42.9l92.32,29.2c13.92,4.4,28.81-3.39,33.24-17.41l26.23-82.92s-48.45,90.36-154.21,70.22Z" />
	</g>
	<polygon class="st20" points="203.97 373.27 75.31 332.16 199.02 388.9" />
	<path class="st12" d="M241.85,356.59c1.7-9.87-3.03-19.33-11.14-24.08,4.78-13.59.61-29.25-11.38-38.42-11.63-8.89-27.18-9.02-38.83-1.48-2.28-3.67-5.82-6.58-10.26-7.98-4.72-1.49-9.59-1.01-13.74.97-1.21-14.1-10.65-26.73-24.9-31.24-18.91-5.98-39.11,4.6-45.13,23.63-.9,2.84-1.43,5.71-1.62,8.55-2.05-1.06-4.3-1.83-6.7-2.24-12.63-2.15-24.64,6.41-26.82,19.11-2.19,12.7,4.47,22.97,17.01,26.51l144.36,46.09c.68.18,1.38.34,2.09.46,12.63,2.15,24.88-7.19,27.07-19.89Z" />
	<path class="st16" d="M230.77,332.55h-.05s-28.95,36.29-162.33-2.78c34.97,11.19,144.31,46.25,144.31,46.25.68.18,1.38.34,2.09.46,12.63,2.15,24.88-7.19,27.07-19.89,1.69-9.84-3.01-19.28-11.08-24.04Z" />
	<path class="st5" d="M141.05,265.26c.16.05.32.11.48.16-3.06-2.63-6.68-4.69-10.76-5.98-16.29-5.15-33.7,3.97-38.89,20.37-1.25,3.95-1.67,7.96-1.37,11.84,6.79-21.27,29.39-33.08,50.55-26.39Z" />
	<path class="st1" d="m207.56 483.47v-0.04 0.04zm8.01-64.71v-0.04 0.04z" />
	<path class="st7" d="M273.39,358.69c-6.03-3.08-13.35-2.04-18.28,2.61-9.01,8.49-18.01,16.98-27.02,25.48-5.06,4.77-10.4,12.03-16.64,14.78-11.03,4.87-25.32,6.33-37.11,8.7-5.99,1.2-13.94,4.1-20.02,3.31-1.14-.15-10.89-4.59-11.07-4.34-.02.02-1.72,2.06-1.72,2.06l2.08,1.68.18,1.87-7.32-3.05-3.02,8.47,6.54,8.16c6.45-1.39,12.68-4.46,19.37-4.29,2.83.07,5.62.6,8.43.91,4.83.53,9.69.41,14.54.49,4.69.08,9.38,1.07,14,1.08,10.3.03,20.61,0,30.91-.02l49.18-41.38c8.77-7.38,7.18-21.32-3.03-26.53Z" />
	<path class="st15" d="M285.86,351.56c-5.98-6.02-18.26-7.57-25.65-3.81-3.71,1.89-7.36,3.91-10.92,6.06-5,3.02-8.26,9.1-11.7,13.76-.94,1.27-11.13,15.34-10.94,15.47,12.71,9.17,25.42,18.35,38.13,27.52.58.42,1.19.85,1.9.91.95.09,1.83-.5,2.6-1.06,7.27-5.23,14.75-10.99,18.26-19.23,2-4.69,2.54-9.84,3.07-14.91.9-8.64,1.38-18.55-4.74-24.72Z" />
</svg>
